# 3ds Max Wavefront OBJ Exporter v0.97b - (c)2007 guruware
# 创建的文件:06.09.2018 11:07:07

mtllib floor7.mtl

#
# object Box001
#

v  -0.4900 -0.0800 0.4900
v  -0.4900 -0.0800 -0.4900
v  0.4900 -0.0800 -0.4900
v  0.4900 -0.0800 0.4900
v  0.4900 0.0800 0.4900
v  -0.4900 0.0800 0.4900
v  0.4900 0.0800 -0.4900
v  -0.4900 0.0800 -0.4900
# 8 vertices

vn 0.0000 -1.0000 -0.0000
vn 0.0000 0.0000 1.0000
vn 1.0000 0.0000 -0.0000
vn 0.0000 0.0000 -1.0000
vn -1.0000 0.0000 -0.0000
# 5 vertex normals

vt 1.0000 0.0000 0.0000
vt 1.0000 1.0000 0.0000
vt 0.0000 1.0000 0.0000
vt 0.0000 0.0000 0.0000
# 4 texture coords

g Box001
usemtl 03___Default
s 2
f 1/1/1 2/2/1 3/3/1 
f 3/3/1 4/4/1 1/1/1 
s 8
f 1/4/2 4/1/2 5/2/2 
f 5/2/2 6/3/2 1/4/2 
s 16
f 4/4/3 3/1/3 7/2/3 
f 7/2/3 5/3/3 4/4/3 
s 32
f 3/4/4 2/1/4 8/2/4 
f 8/2/4 7/3/4 3/4/4 
s 64
f 2/4/5 1/1/5 6/2/5 
f 6/2/5 8/3/5 2/4/5 
# 10 faces

#
# object 对象001
#

v  -0.4900 0.0800 0.4900
v  0.4900 0.0800 0.4900
v  0.4900 0.0800 -0.4900
v  -0.4900 0.0800 -0.4900
# 4 vertices

vn 0.0000 1.0000 -0.0000
# 1 vertex normals

vt 0.0000 0.0000 0.0000
vt 1.0000 0.0000 0.0000
vt 1.0000 1.0000 0.0000
vt 0.0000 1.0000 0.0000
# 4 texture coords

g 对象001
usemtl 02___Default
s 4
f 9/5/6 10/6/6 11/7/6 
f 11/7/6 12/8/6 9/5/6 
# 2 faces

#
# object Line004
#

v  0.3440 0.0999 -0.2736
v  0.0800 0.0999 -0.0000
v  0.0800 0.0799 -0.0000
v  0.3440 0.0799 -0.2736
v  0.2731 0.0999 -0.3468
v  0.2731 0.0799 -0.3468
v  0.0000 0.0999 -0.0800
v  0.0000 0.0799 -0.0800
v  0.0000 0.0799 -0.0000
v  0.3023 0.1299 -0.2735
v  0.2725 0.1299 -0.3043
v  0.0000 0.1299 -0.0500
v  0.0000 0.1299 -0.0000
v  0.0500 0.1299 -0.0000
v  0.0725 0.1224 -0.0000
v  0.3336 0.1224 -0.2736
v  0.2730 0.1224 -0.3362
v  0.0000 0.1224 -0.0725
# 18 vertices

vn 0.7196 0.0000 0.6944
vn 0.7187 0.0000 -0.6953
vn -0.6988 0.0000 -0.7154
vn 0.0000 -1.0000 -0.0000
vn 0.0000 1.0000 -0.0000
vn 0.6997 0.2332 0.6753
vn 0.6859 0.3178 0.6546
vn 0.6818 0.3162 -0.6596
vn -0.6629 0.3162 -0.6786
vn -0.6756 0.2332 -0.6995
vn 0.3027 0.9082 0.2889
vn 0.2280 0.9507 0.2103
vn 0.2273 0.9487 -0.2199
vn -0.2186 0.9492 -0.2263
vn -0.2830 0.9099 -0.3033
# 15 vertex normals

g Line004
usemtl 08___Default
s 4
f 13//7 14//7 15//7 
f 15//7 16//7 13//7 
s 2
f 17//8 13//8 16//8 
f 16//8 18//8 17//8 
s 4
f 19//9 17//9 18//9 
f 18//9 20//9 19//9 
s 16
f 15//10 21//10 20//10 
f 16//10 15//10 20//10 
f 16//10 20//10 18//10 
f 22//11 23//11 24//11 
f 24//11 25//11 26//11 
f 22//11 24//11 26//11 
s off
f 27//12 14//12 13//12 
f 13//13 28//13 27//13 
f 28//14 13//14 17//14 
f 17//14 29//14 28//14 
f 29//15 17//15 19//15 
f 19//16 30//16 29//16 
f 26//17 27//17 28//17 
f 28//18 22//18 26//18 
f 22//19 28//19 29//19 
f 29//19 23//19 22//19 
f 23//20 29//20 30//20 
f 30//21 24//21 23//21 
# 24 faces

#
# object Line005
#

v  -0.3459 0.0999 -0.2736
v  -0.0819 0.0999 -0.0000
v  -0.0819 0.0799 -0.0000
v  -0.3459 0.0799 -0.2736
v  -0.2751 0.0999 -0.3468
v  -0.2751 0.0799 -0.3468
v  -0.0019 0.0999 -0.0800
v  -0.0019 0.0799 -0.0800
v  -0.0019 0.0799 -0.0000
v  -0.3042 0.1299 -0.2735
v  -0.2745 0.1299 -0.3043
v  -0.0019 0.1299 -0.0500
v  -0.0019 0.1299 -0.0000
v  -0.0519 0.1299 -0.0000
v  -0.0744 0.1224 -0.0000
v  -0.3355 0.1224 -0.2736
v  -0.2749 0.1224 -0.3362
v  -0.0019 0.1224 -0.0725
# 18 vertices

vn -0.7196 0.0000 0.6944
vn -0.7187 0.0000 -0.6953
vn 0.6988 0.0000 -0.7154
vn 0.0000 -1.0000 -0.0000
vn 0.0000 1.0000 -0.0000
vn -0.6997 0.2332 0.6753
vn -0.6859 0.3178 0.6546
vn -0.6818 0.3162 -0.6596
vn 0.6629 0.3162 -0.6786
vn 0.6756 0.2332 -0.6995
vn -0.3027 0.9082 0.2889
vn -0.2280 0.9507 0.2103
vn -0.2273 0.9487 -0.2199
vn 0.2186 0.9492 -0.2263
vn 0.2830 0.9099 -0.3033
# 15 vertex normals

g Line005
usemtl 08___Default
s 4
f 33//22 32//22 31//22 
f 31//22 34//22 33//22 
s 2
f 34//23 31//23 35//23 
f 35//23 36//23 34//23 
s 4
f 36//24 35//24 37//24 
f 37//24 38//24 36//24 
s 16
f 38//25 39//25 33//25 
f 38//25 33//25 34//25 
f 36//25 38//25 34//25 
f 42//26 41//26 40//26 
f 44//26 43//26 42//26 
f 44//26 42//26 40//26 
s off
f 31//27 32//27 45//27 
f 45//28 46//28 31//28 
f 35//29 31//29 46//29 
f 46//29 47//29 35//29 
f 37//30 35//30 47//30 
f 47//31 48//31 37//31 
f 46//32 45//32 44//32 
f 44//33 40//33 46//33 
f 47//34 46//34 40//34 
f 40//34 41//34 47//34 
f 48//35 47//35 41//35 
f 41//36 42//36 48//36 
# 24 faces

#
# object Line006
#

v  -0.3459 0.0999 0.2763
v  -0.0819 0.0999 0.0027
v  -0.0819 0.0799 0.0027
v  -0.3459 0.0799 0.2763
v  -0.2751 0.0999 0.3495
v  -0.2751 0.0799 0.3495
v  -0.0019 0.0999 0.0827
v  -0.0019 0.0799 0.0827
v  -0.0019 0.0799 0.0027
v  -0.3042 0.1299 0.2763
v  -0.2745 0.1299 0.3070
v  -0.0019 0.1299 0.0527
v  -0.0019 0.1299 0.0027
v  -0.0519 0.1299 0.0027
v  -0.0744 0.1224 0.0027
v  -0.3355 0.1224 0.2763
v  -0.2749 0.1224 0.3389
v  -0.0019 0.1224 0.0752
# 18 vertices

vn -0.7196 0.0000 -0.6944
vn -0.7187 0.0000 0.6953
vn 0.6988 0.0000 0.7154
vn 0.0000 -1.0000 -0.0000
vn 0.0000 1.0000 -0.0000
vn -0.6997 0.2332 -0.6753
vn -0.6859 0.3178 -0.6546
vn -0.6818 0.3162 0.6596
vn 0.6629 0.3162 0.6786
vn 0.6756 0.2332 0.6995
vn -0.3027 0.9082 -0.2889
vn -0.2280 0.9507 -0.2103
vn -0.2273 0.9487 0.2199
vn 0.2186 0.9492 0.2263
vn 0.2830 0.9099 0.3033
# 15 vertex normals

g Line006
usemtl 08___Default
s 4
f 49//37 50//37 51//37 
f 51//37 52//37 49//37 
s 2
f 53//38 49//38 52//38 
f 52//38 54//38 53//38 
s 4
f 55//39 53//39 54//39 
f 54//39 56//39 55//39 
s 16
f 51//40 57//40 56//40 
f 52//40 51//40 56//40 
f 52//40 56//40 54//40 
f 58//41 59//41 60//41 
f 60//41 61//41 62//41 
f 58//41 60//41 62//41 
s off
f 63//42 50//42 49//42 
f 49//43 64//43 63//43 
f 64//44 49//44 53//44 
f 53//44 65//44 64//44 
f 65//45 53//45 55//45 
f 55//46 66//46 65//46 
f 62//47 63//47 64//47 
f 64//48 58//48 62//48 
f 58//49 64//49 65//49 
f 65//49 59//49 58//49 
f 59//50 65//50 66//50 
f 66//51 60//51 59//51 
# 24 faces

#
# object Line007
#

v  0.3440 0.0999 0.2763
v  0.0800 0.0999 0.0027
v  0.0800 0.0799 0.0027
v  0.3440 0.0799 0.2763
v  0.2731 0.0999 0.3495
v  0.2731 0.0799 0.3495
v  0.0000 0.0999 0.0827
v  0.0000 0.0799 0.0827
v  0.0000 0.0799 0.0027
v  0.3023 0.1299 0.2763
v  0.2725 0.1299 0.3070
v  0.0000 0.1299 0.0527
v  0.0000 0.1299 0.0027
v  0.0500 0.1299 0.0027
v  0.0725 0.1224 0.0027
v  0.3336 0.1224 0.2763
v  0.2730 0.1224 0.3389
v  0.0000 0.1224 0.0752
# 18 vertices

vn 0.7196 0.0000 -0.6944
vn 0.7187 0.0000 0.6953
vn -0.6988 0.0000 0.7154
vn 0.0000 -1.0000 -0.0000
vn 0.0000 1.0000 -0.0000
vn 0.6997 0.2332 -0.6753
vn 0.6859 0.3178 -0.6546
vn 0.6818 0.3162 0.6596
vn -0.6629 0.3162 0.6786
vn -0.6756 0.2332 0.6995
vn 0.3027 0.9082 -0.2889
vn 0.2280 0.9507 -0.2103
vn 0.2273 0.9487 0.2199
vn -0.2186 0.9492 0.2263
vn -0.2830 0.9099 0.3033
# 15 vertex normals

g Line007
usemtl 08___Default
s 4
f 69//52 68//52 67//52 
f 67//52 70//52 69//52 
s 2
f 70//53 67//53 71//53 
f 71//53 72//53 70//53 
s 4
f 72//54 71//54 73//54 
f 73//54 74//54 72//54 
s 16
f 74//55 75//55 69//55 
f 74//55 69//55 70//55 
f 72//55 74//55 70//55 
f 78//56 77//56 76//56 
f 80//56 79//56 78//56 
f 80//56 78//56 76//56 
s off
f 67//57 68//57 81//57 
f 81//58 82//58 67//58 
f 71//59 67//59 82//59 
f 82//59 83//59 71//59 
f 73//60 71//60 83//60 
f 83//61 84//61 73//61 
f 82//62 81//62 80//62 
f 80//63 76//63 82//63 
f 83//64 82//64 76//64 
f 76//64 77//64 83//64 
f 84//65 83//65 77//65 
f 77//66 78//66 84//66 
# 24 faces

