# 3ds Max Wavefront OBJ Exporter v0.97b - (c)2007 guruware
# File Created: 13.10.2018 19:21:31

mtllib box.mtl

#
# object Box001
#

v  -100.0000 0.0000 100.0000
v  -100.0000 0.0000 -100.0000
v  100.0000 0.0000 -100.0000
v  100.0000 0.0000 100.0000
v  100.0000 120.0000 100.0000
v  -100.0000 120.0000 100.0000
v  100.0000 120.0000 -100.0000
v  -100.0000 120.0000 -100.0000
v  -90.0000 120.0000 90.0000
v  -90.0000 120.0000 -90.0000
v  90.0000 120.0000 -90.0000
v  90.0000 120.0000 90.0000
v  -90.0000 10.0000 90.0000
v  90.0000 10.0000 90.0000
v  90.0000 10.0000 -90.0000
v  -90.0000 10.0000 -90.0000
# 16 vertices

vn 0.0000 -1.0000 -0.0000
vn 0.0000 0.0000 1.0000
vn 1.0000 0.0000 -0.0000
vn 0.0000 0.0000 -1.0000
vn -1.0000 0.0000 -0.0000
vn 0.0000 1.0000 -0.0000
# 6 vertex normals

vt 1.0000 0.0000 0.0000
vt 1.0000 1.0000 0.0000
vt 0.0000 1.0000 0.0000
vt 0.0000 0.0000 0.0000
vt 0.0500 0.0500 0.0000
vt 0.0500 0.9500 0.0000
vt 0.9500 0.9500 0.0000
vt 0.9500 0.0500 0.0000
# 8 texture coords

g Box001
usemtl 01___Default
s 2
f 1/1/1 2/2/1 3/3/1 4/4/1 
s 8
f 1/4/2 4/1/2 5/2/2 6/3/2 
s 16
f 4/4/3 3/1/3 7/2/3 5/3/3 
s 32
f 3/4/4 2/1/4 8/2/4 7/3/4 
s 64
f 2/4/5 1/1/5 6/2/5 8/3/5 
s 4
f 9/5/6 10/6/6 11/7/6 8/3/6 
f 9/5/6 8/3/6 6/4/6 5/1/6 
f 12/8/6 9/5/6 5/1/6 7/2/6 
f 11/7/6 12/8/6 7/2/6 8/3/6 
s 2
f 13/1/6 14/4/6 15/3/6 16/2/6 
s 8
f 13/4/4 9/3/4 12/2/4 14/1/4 
s 16
f 14/4/5 12/3/5 11/2/5 15/1/5 
s 32
f 15/4/2 11/3/2 10/2/2 16/1/2 
s 64
f 16/4/3 10/3/3 9/2/3 13/1/3 
# 14 polygons

