# 3ds Max Wavefront OBJ Exporter v0.97b - (c)2007 guruware
# 创建的文件:06.09.2018 17:56:58

mtllib case.mtl

#
# object Box001
#

v  -1.0000 -0.5000 0.5000
v  -1.0000 -0.5000 -0.5000
v  1.0000 -0.5000 -0.5000
v  1.0000 -0.5000 0.5000
v  -1.0000 0.5000 0.5000
v  1.0000 0.5000 0.5000
v  1.0000 0.5000 -0.5000
v  -1.0000 0.5000 -0.5000
# 8 vertices

vn 0.0000 -1.0000 -0.0000
vn 0.0000 1.0000 -0.0000
vn 0.0000 0.0000 1.0000
vn 0.0000 0.0000 -1.0000
# 4 vertex normals

vt 1.0000 0.0000 0.0000
vt 1.0000 1.0000 0.0000
vt 0.0000 1.0000 0.0000
vt 0.0000 0.0000 0.0000
# 4 texture coords

g Box001
usemtl 02___Default
s 2
f 1/1/1 2/2/1 3/3/1 
f 3/3/1 4/4/1 1/1/1 
s 4
f 5/4/2 6/1/2 7/2/2 
f 7/2/2 8/3/2 5/4/2 
s 8
f 1/4/3 4/1/3 6/2/3 
f 6/2/3 5/3/3 1/4/3 
s 32
f 3/4/4 2/1/4 8/2/4 
f 8/2/4 7/3/4 3/4/4 
# 8 faces

#
# object 对象001
#

v  -1.0000 -0.5000 -0.5000
v  -1.0000 -0.5000 0.5000
v  -1.0000 0.5000 0.5000
v  -1.0000 0.5000 -0.5000
# 4 vertices

vn -1.0000 0.0000 -0.0000
# 1 vertex normals

vt 0.0000 0.0000 0.0000
vt 1.0000 0.0000 0.0000
vt 1.0000 1.0000 0.0000
vt 0.0000 1.0000 0.0000
# 4 texture coords

g 对象001
usemtl 01___Default
s 64
f 9/5/5 10/6/5 11/7/5 
f 11/7/5 12/8/5 9/5/5 
# 2 faces

#
# object 对象002
#

v  1.0000 -0.5000 0.5000
v  1.0000 -0.5000 -0.5000
v  1.0000 0.5000 -0.5000
v  1.0000 0.5000 0.5000
# 4 vertices

vn 1.0000 0.0000 -0.0000
# 1 vertex normals

vt 0.0000 0.0000 0.0000
vt 1.0000 0.0000 0.0000
vt 1.0000 1.0000 0.0000
vt 0.0000 1.0000 0.0000
# 4 texture coords

g 对象002
usemtl 01___Default
s 16
f 13/9/6 14/10/6 15/11/6 
f 15/11/6 16/12/6 13/9/6 
# 2 faces

