# 3ds Max Wavefront OBJ Exporter v0.97b - (c)2007 guruware
# 创建的文件:06.09.2018 10:51:36

mtllib floor3.mtl

#
# object Box001
#

v  -0.4900 -0.0800 0.4900
v  -0.4900 -0.0800 -0.4900
v  0.4900 -0.0800 -0.4900
v  0.4900 -0.0800 0.4900
v  0.4900 0.0800 0.4900
v  -0.4900 0.0800 0.4900
v  0.4900 0.0800 -0.4900
v  -0.4900 0.0800 -0.4900
# 8 vertices

vn 0.0000 -1.0000 -0.0000
vn 0.0000 0.0000 1.0000
vn 1.0000 0.0000 -0.0000
vn 0.0000 0.0000 -1.0000
vn -1.0000 0.0000 -0.0000
# 5 vertex normals

vt 1.0000 0.0000 0.0000
vt 1.0000 1.0000 0.0000
vt 0.0000 1.0000 0.0000
vt 0.0000 0.0000 0.0000
# 4 texture coords

g Box001
usemtl 03___Default
s 2
f 1/1/1 2/2/1 3/3/1 
f 3/3/1 4/4/1 1/1/1 
s 8
f 1/4/2 4/1/2 5/2/2 
f 5/2/2 6/3/2 1/4/2 
s 16
f 4/4/3 3/1/3 7/2/3 
f 7/2/3 5/3/3 4/4/3 
s 32
f 3/4/4 2/1/4 8/2/4 
f 8/2/4 7/3/4 3/4/4 
s 64
f 2/4/5 1/1/5 6/2/5 
f 6/2/5 8/3/5 2/4/5 
# 10 faces

#
# object 对象001
#

v  -0.4900 0.0800 0.4900
v  0.4900 0.0800 0.4900
v  0.4900 0.0800 -0.4900
v  -0.4900 0.0800 -0.4900
# 4 vertices

vn 0.0000 1.0000 -0.0000
# 1 vertex normals

vt 0.0000 0.0000 0.0000
vt 1.0000 0.0000 0.0000
vt 1.0000 1.0000 0.0000
vt 0.0000 1.0000 0.0000
# 4 texture coords

g 对象001
usemtl 02___Default
s 4
f 9/5/6 10/6/6 11/7/6 
f 11/7/6 12/8/6 9/5/6 
# 2 faces

#
# object Circle001
#

v  0.2142 0.1149 -0.0504
v  0.2200 0.1149 -0.0000
v  0.2200 0.0799 -0.0000
v  0.2142 0.0799 -0.0504
v  0.1976 0.1149 -0.0967
v  0.1976 0.0799 -0.0967
v  0.1716 0.1149 -0.1376
v  0.1716 0.0799 -0.1376
v  0.1376 0.1149 -0.1716
v  0.1376 0.0799 -0.1716
v  0.0967 0.1149 -0.1976
v  0.0967 0.0799 -0.1976
v  0.0504 0.1149 -0.2142
v  0.0504 0.0799 -0.2142
v  -0.0000 0.1149 -0.2200
v  -0.0000 0.0799 -0.2200
v  -0.0504 0.1149 -0.2142
v  -0.0504 0.0799 -0.2142
v  -0.0967 0.1149 -0.1976
v  -0.0967 0.0799 -0.1976
v  -0.1376 0.1149 -0.1716
v  -0.1376 0.0799 -0.1716
v  -0.1716 0.1149 -0.1376
v  -0.1716 0.0799 -0.1376
v  -0.1976 0.1149 -0.0967
v  -0.1976 0.0799 -0.0967
v  -0.2142 0.1149 -0.0504
v  -0.2142 0.0799 -0.0504
v  -0.2200 0.1149 0.0000
v  -0.2200 0.0799 0.0000
v  -0.2142 0.1149 0.0504
v  -0.2142 0.0799 0.0504
v  -0.1976 0.1149 0.0967
v  -0.1976 0.0799 0.0967
v  -0.1716 0.1149 0.1376
v  -0.1716 0.0799 0.1376
v  -0.1376 0.1149 0.1716
v  -0.1376 0.0799 0.1716
v  -0.0967 0.1149 0.1976
v  -0.0967 0.0799 0.1976
v  -0.0504 0.1149 0.2142
v  -0.0504 0.0799 0.2142
v  0.0000 0.1149 0.2200
v  0.0000 0.0799 0.2200
v  0.0504 0.1149 0.2142
v  0.0504 0.0799 0.2142
v  0.0967 0.1149 0.1976
v  0.0967 0.0799 0.1976
v  0.1376 0.1149 0.1716
v  0.1376 0.0799 0.1716
v  0.1716 0.1149 0.1376
v  0.1716 0.0799 0.1376
v  0.1976 0.1149 0.0967
v  0.1976 0.0799 0.0967
v  0.2142 0.1149 0.0504
v  0.2142 0.0799 0.0504
v  -0.1995 0.1299 -0.0470
v  -0.2049 0.1299 0.0000
v  -0.1995 0.1299 0.0470
v  -0.0470 0.1299 -0.1995
v  -0.0901 0.1299 -0.1841
v  -0.1281 0.1299 -0.1599
v  -0.0000 0.1299 -0.2049
v  0.0470 0.1299 -0.1995
v  0.0901 0.1299 -0.1841
v  0.1281 0.1299 -0.1599
v  0.1599 0.1299 -0.1281
v  0.1841 0.1299 -0.0901
v  0.1995 0.1299 -0.0470
v  0.2049 0.1299 -0.0000
v  0.1995 0.1299 0.0470
v  0.1841 0.1299 0.0901
v  0.1599 0.1299 0.1281
v  0.1281 0.1299 0.1599
v  0.0901 0.1299 0.1841
v  0.0470 0.1299 0.1995
v  0.0000 0.1299 0.2049
v  -0.0470 0.1299 0.1995
v  -0.0901 0.1299 0.1841
v  -0.1281 0.1299 0.1599
v  -0.1599 0.1299 0.1281
v  -0.1599 0.1299 -0.1281
v  -0.1841 0.1299 -0.0901
v  -0.1841 0.1299 0.0901
v  0.2183 0.1232 -0.0000
v  0.2126 0.1232 -0.0500
v  0.1961 0.1232 -0.0960
v  0.1703 0.1232 -0.1365
v  0.1365 0.1232 -0.1703
v  0.0960 0.1232 -0.1961
v  0.0500 0.1232 -0.2126
v  -0.0000 0.1232 -0.2183
v  -0.0500 0.1232 -0.2126
v  -0.0960 0.1232 -0.1961
v  -0.1365 0.1232 -0.1703
v  -0.1703 0.1232 -0.1365
v  -0.1961 0.1232 -0.0960
v  -0.2126 0.1232 -0.0500
v  -0.2183 0.1232 0.0000
v  -0.2126 0.1232 0.0500
v  -0.1961 0.1232 0.0960
v  -0.1703 0.1232 0.1365
v  -0.1365 0.1232 0.1703
v  -0.0960 0.1232 0.1961
v  -0.0500 0.1232 0.2126
v  0.0000 0.1232 0.2183
v  0.0500 0.1232 0.2126
v  0.0960 0.1232 0.1961
v  0.1365 0.1232 0.1703
v  0.1703 0.1232 0.1365
v  0.1961 0.1232 0.0960
v  0.2126 0.1232 0.0500
v  0.2133 0.1282 -0.0000
v  0.2076 0.1282 -0.0489
v  0.1916 0.1282 -0.0938
v  0.1664 0.1282 -0.1334
v  0.1334 0.1282 -0.1664
v  0.0938 0.1282 -0.1916
v  0.0489 0.1282 -0.2076
v  -0.0000 0.1282 -0.2133
v  -0.0489 0.1282 -0.2076
v  -0.0938 0.1282 -0.1916
v  -0.1334 0.1282 -0.1664
v  -0.1664 0.1282 -0.1334
v  -0.1916 0.1282 -0.0938
v  -0.2076 0.1282 -0.0489
v  -0.2133 0.1282 0.0000
v  -0.2076 0.1282 0.0489
v  -0.1916 0.1282 0.0938
v  -0.1664 0.1282 0.1334
v  -0.1334 0.1282 0.1664
v  -0.0938 0.1282 0.1916
v  -0.0489 0.1282 0.2076
v  0.0000 0.1282 0.2133
v  0.0489 0.1282 0.2076
v  0.0938 0.1282 0.1916
v  0.1334 0.1282 0.1664
v  0.1664 0.1282 0.1334
v  0.1916 0.1282 0.0938
v  0.2076 0.1282 0.0489
# 140 vertices

vn 0.9738 0.0000 -0.2272
vn 1.0000 0.0000 0.0000
vn 0.8982 0.0000 -0.4395
vn 0.7801 0.0000 -0.6257
vn 0.6257 0.0000 -0.7801
vn 0.4395 0.0000 -0.8982
vn 0.2272 0.0000 -0.9738
vn 0.0000 0.0000 -1.0000
vn -0.2272 0.0000 -0.9738
vn -0.4395 0.0000 -0.8982
vn -0.6257 0.0000 -0.7801
vn -0.7801 0.0000 -0.6257
vn -0.8982 0.0000 -0.4395
vn -0.9738 0.0000 -0.2272
vn -1.0000 0.0000 0.0000
vn -0.9738 0.0000 0.2272
vn -0.8982 0.0000 0.4395
vn -0.7801 0.0000 0.6257
vn -0.6257 0.0000 0.7801
vn -0.4395 0.0000 0.8982
vn -0.2272 0.0000 0.9738
vn -0.0000 0.0000 1.0000
vn 0.2272 0.0000 0.9738
vn 0.4395 0.0000 0.8982
vn 0.6257 0.0000 0.7801
vn 0.7801 0.0000 0.6257
vn 0.8982 0.0000 0.4395
vn 0.9738 0.0000 0.2272
vn 0.0000 -1.0000 -0.0000
vn 0.0000 1.0000 -0.0000
vn 0.9741 0.1961 -0.1124
vn 0.9233 0.1961 -0.3304
vn 0.8274 0.1961 -0.5263
vn 0.6934 0.1961 -0.6934
vn 0.5263 0.1961 -0.8274
vn 0.3304 0.1961 -0.9233
vn 0.1124 0.1961 -0.9741
vn -0.1124 0.1961 -0.9741
vn -0.3304 0.1961 -0.9233
vn -0.5263 0.1961 -0.8274
vn -0.6934 0.1961 -0.6934
vn -0.8274 0.1961 -0.5263
vn -0.9233 0.1961 -0.3304
vn -0.9741 0.1961 -0.1124
vn -0.9741 0.1961 0.1124
vn -0.9233 0.1961 0.3304
vn -0.8274 0.1961 0.5263
vn -0.6934 0.1961 0.6934
vn -0.5263 0.1961 0.8274
vn -0.3304 0.1961 0.9233
vn -0.1124 0.1961 0.9741
vn 0.1124 0.1961 0.9741
vn 0.3304 0.1961 0.9233
vn 0.5263 0.1961 0.8274
vn 0.6934 0.1961 0.6934
vn 0.8274 0.1961 0.5263
vn 0.9233 0.1961 0.3304
vn 0.9741 0.1961 0.1124
vn 0.7024 0.7071 -0.0810
vn 0.1948 0.9806 -0.0225
vn 0.6658 0.7071 -0.2382
vn 0.1847 0.9806 -0.0661
vn 0.5966 0.7071 -0.3795
vn 0.1655 0.9806 -0.1053
vn 0.5000 0.7071 -0.5000
vn 0.1387 0.9806 -0.1387
vn 0.3795 0.7071 -0.5966
vn 0.1053 0.9806 -0.1655
vn 0.2382 0.7071 -0.6658
vn 0.0661 0.9806 -0.1847
vn 0.0810 0.7071 -0.7024
vn 0.0225 0.9806 -0.1948
vn -0.0810 0.7071 -0.7024
vn -0.0225 0.9806 -0.1948
vn -0.2382 0.7071 -0.6658
vn -0.0661 0.9806 -0.1847
vn -0.3795 0.7071 -0.5966
vn -0.1053 0.9806 -0.1655
vn -0.5000 0.7071 -0.5000
vn -0.1387 0.9806 -0.1387
vn -0.5966 0.7071 -0.3795
vn -0.1655 0.9806 -0.1053
vn -0.6658 0.7071 -0.2382
vn -0.1847 0.9806 -0.0661
vn -0.7024 0.7071 -0.0810
vn -0.1948 0.9806 -0.0225
vn -0.7024 0.7071 0.0810
vn -0.1948 0.9806 0.0225
vn -0.6658 0.7071 0.2382
vn -0.1847 0.9806 0.0661
vn -0.5966 0.7071 0.3795
vn -0.1655 0.9806 0.1053
vn -0.5000 0.7071 0.5000
vn -0.1387 0.9806 0.1387
vn -0.3795 0.7071 0.5966
vn -0.1053 0.9806 0.1655
vn -0.2382 0.7071 0.6658
vn -0.0661 0.9806 0.1847
vn -0.0810 0.7071 0.7024
vn -0.0225 0.9806 0.1948
vn 0.0810 0.7071 0.7024
vn 0.0225 0.9806 0.1948
vn 0.2382 0.7071 0.6658
vn 0.0661 0.9806 0.1847
vn 0.3795 0.7071 0.5966
vn 0.1053 0.9806 0.1655
vn 0.5000 0.7071 0.5000
vn 0.1387 0.9806 0.1387
vn 0.5966 0.7071 0.3795
vn 0.1655 0.9806 0.1053
vn 0.6658 0.7071 0.2382
vn 0.1847 0.9806 0.0661
vn 0.7024 0.7071 0.0810
vn 0.1948 0.9806 0.0225
# 114 vertex normals

g Circle001
usemtl 09___Default
s 1
f 13//7 14//8 15//8 
f 15//8 16//7 13//7 
s 3
f 17//9 13//7 16//7 
f 16//7 18//9 17//9 
s 2
f 19//10 17//9 18//9 
f 18//9 20//10 19//10 
f 21//11 19//10 20//10 
f 20//10 22//11 21//11 
f 23//12 21//11 22//11 
f 22//11 24//12 23//12 
f 25//13 23//12 24//12 
f 24//12 26//13 25//13 
f 27//14 25//13 26//13 
f 26//13 28//14 27//14 
f 29//15 27//14 28//14 
f 28//14 30//15 29//15 
f 31//16 29//15 30//15 
f 30//15 32//16 31//16 
f 33//17 31//16 32//16 
f 32//16 34//17 33//17 
f 35//18 33//17 34//17 
f 34//17 36//18 35//18 
f 37//19 35//18 36//18 
f 36//18 38//19 37//19 
f 39//20 37//19 38//19 
f 38//19 40//20 39//20 
f 41//21 39//20 40//20 
f 40//20 42//21 41//21 
f 43//22 41//21 42//21 
f 42//21 44//22 43//22 
f 45//23 43//22 44//22 
f 44//22 46//23 45//23 
f 47//24 45//23 46//23 
f 46//23 48//24 47//24 
f 49//25 47//24 48//24 
f 48//24 50//25 49//25 
f 51//26 49//25 50//25 
f 50//25 52//26 51//26 
f 53//27 51//26 52//26 
f 52//26 54//27 53//27 
f 55//28 53//27 54//27 
f 54//27 56//28 55//28 
f 57//29 55//28 56//28 
f 56//28 58//29 57//29 
f 59//30 57//29 58//29 
f 58//29 60//30 59//30 
f 61//31 59//30 60//30 
f 60//30 62//31 61//31 
f 63//32 61//31 62//31 
f 62//31 64//32 63//32 
f 65//33 63//32 64//32 
f 64//32 66//33 65//33 
f 67//34 65//33 66//33 
f 66//33 68//34 67//34 
s 3
f 14//8 67//34 68//34 
f 68//34 15//8 14//8 
s 16
f 34//35 32//35 30//35 
f 34//35 30//35 28//35 
f 34//35 28//35 26//35 
f 34//35 26//35 24//35 
f 34//35 24//35 22//35 
f 34//35 22//35 20//35 
f 34//35 20//35 18//35 
f 34//35 18//35 16//35 
f 34//35 16//35 15//35 
f 34//35 15//35 68//35 
f 34//35 68//35 66//35 
f 34//35 66//35 64//35 
f 34//35 64//35 62//35 
f 34//35 62//35 60//35 
f 34//35 60//35 58//35 
f 34//35 58//35 56//35 
f 34//35 56//35 54//35 
f 34//35 54//35 52//35 
f 34//35 52//35 50//35 
f 34//35 50//35 48//35 
f 36//35 34//35 48//35 
f 38//35 36//35 48//35 
f 38//35 48//35 46//35 
f 38//35 46//35 44//35 
f 40//35 38//35 44//35 
f 40//35 44//35 42//35 
f 69//36 70//36 71//36 
f 72//36 73//36 74//36 
f 75//36 72//36 74//36 
f 76//36 75//36 74//36 
f 77//36 76//36 74//36 
f 78//36 77//36 74//36 
f 79//36 78//36 74//36 
f 80//36 79//36 74//36 
f 81//36 80//36 74//36 
f 82//36 81//36 74//36 
f 83//36 82//36 74//36 
f 84//36 83//36 74//36 
f 85//36 84//36 74//36 
f 86//36 85//36 74//36 
f 87//36 86//36 74//36 
f 88//36 87//36 74//36 
f 89//36 88//36 74//36 
f 90//36 89//36 74//36 
f 91//36 90//36 74//36 
f 92//36 91//36 74//36 
f 93//36 92//36 74//36 
f 93//36 74//36 94//36 
f 93//36 94//36 95//36 
f 96//36 93//36 95//36 
f 71//36 96//36 95//36 
f 69//36 71//36 95//36 
s off
f 97//37 14//37 13//37 
f 13//37 98//37 97//37 
f 98//38 13//38 17//38 
f 17//38 99//38 98//38 
f 99//39 17//39 19//39 
f 19//39 100//39 99//39 
f 100//40 19//40 21//40 
f 21//40 101//40 100//40 
f 101//41 21//41 23//41 
f 23//41 102//41 101//41 
f 102//42 23//42 25//42 
f 25//42 103//42 102//42 
f 103//43 25//43 27//43 
f 27//43 104//43 103//43 
f 104//44 27//44 29//44 
f 29//44 105//44 104//44 
f 105//45 29//45 31//45 
f 31//45 106//45 105//45 
f 106//46 31//46 33//46 
f 33//46 107//46 106//46 
f 107//47 33//47 35//47 
f 35//47 108//47 107//47 
f 108//48 35//48 37//48 
f 37//48 109//48 108//48 
f 109//49 37//49 39//49 
f 39//49 110//49 109//49 
f 110//50 39//50 41//50 
f 41//50 111//50 110//50 
f 111//51 41//51 43//51 
f 43//51 112//51 111//51 
f 112//52 43//52 45//52 
f 45//52 113//52 112//52 
f 113//53 45//53 47//53 
f 47//53 114//53 113//53 
f 114//54 47//54 49//54 
f 49//54 115//54 114//54 
f 115//55 49//55 51//55 
f 51//55 116//55 115//55 
f 116//56 51//56 53//56 
f 53//56 117//56 116//56 
f 117//57 53//57 55//57 
f 55//57 118//57 117//57 
f 118//58 55//58 57//58 
f 57//58 119//58 118//58 
f 119//59 57//59 59//59 
f 59//59 120//59 119//59 
f 120//60 59//60 61//60 
f 61//60 121//60 120//60 
f 121//61 61//61 63//61 
f 63//61 122//61 121//61 
f 122//62 63//62 65//62 
f 65//62 123//62 122//62 
f 123//63 65//63 67//63 
f 67//63 124//63 123//63 
f 124//64 67//64 14//64 
f 14//64 97//64 124//64 
f 125//65 97//65 98//65 
f 98//65 126//65 125//65 
f 82//66 125//66 126//66 
f 126//66 81//66 82//66 
f 126//67 98//67 99//67 
f 99//67 127//67 126//67 
f 81//68 126//68 127//68 
f 127//68 80//68 81//68 
f 127//69 99//69 100//69 
f 100//69 128//69 127//69 
f 80//70 127//70 128//70 
f 128//70 79//70 80//70 
f 128//71 100//71 101//71 
f 101//71 129//71 128//71 
f 79//72 128//72 129//72 
f 129//72 78//72 79//72 
f 129//73 101//73 102//73 
f 102//73 130//73 129//73 
f 78//74 129//74 130//74 
f 130//74 77//74 78//74 
f 130//75 102//75 103//75 
f 103//75 131//75 130//75 
f 77//76 130//76 131//76 
f 131//76 76//76 77//76 
f 131//77 103//77 104//77 
f 104//77 132//77 131//77 
f 76//78 131//78 132//78 
f 132//78 75//78 76//78 
f 132//79 104//79 105//79 
f 105//79 133//79 132//79 
f 75//80 132//80 133//80 
f 133//80 72//80 75//80 
f 133//81 105//81 106//81 
f 106//81 134//81 133//81 
f 72//82 133//82 134//82 
f 134//82 73//82 72//82 
f 134//83 106//83 107//83 
f 107//83 135//83 134//83 
f 73//84 134//84 135//84 
f 135//84 74//84 73//84 
f 135//85 107//85 108//85 
f 108//85 136//85 135//85 
f 74//86 135//86 136//86 
f 136//86 94//86 74//86 
f 136//87 108//87 109//87 
f 109//87 137//87 136//87 
f 94//88 136//88 137//88 
f 137//88 95//88 94//88 
f 137//89 109//89 110//89 
f 110//89 138//89 137//89 
f 95//90 137//90 138//90 
f 138//90 69//90 95//90 
f 138//91 110//91 111//91 
f 111//91 139//91 138//91 
f 69//92 138//92 139//92 
f 139//92 70//92 69//92 
f 139//93 111//93 112//93 
f 112//93 140//93 139//93 
f 70//94 139//94 140//94 
f 140//94 71//94 70//94 
f 140//95 112//95 113//95 
f 113//95 141//95 140//95 
f 71//96 140//96 141//96 
f 141//96 96//96 71//96 
f 141//97 113//97 114//97 
f 114//97 142//97 141//97 
f 96//98 141//98 142//98 
f 142//98 93//98 96//98 
f 142//99 114//99 115//99 
f 115//99 143//99 142//99 
f 93//100 142//100 143//100 
f 143//100 92//100 93//100 
f 143//101 115//101 116//101 
f 116//101 144//101 143//101 
f 92//102 143//102 144//102 
f 144//102 91//102 92//102 
f 144//103 116//103 117//103 
f 117//103 145//103 144//103 
f 91//104 144//104 145//104 
f 145//104 90//104 91//104 
f 145//105 117//105 118//105 
f 118//105 146//105 145//105 
f 90//106 145//106 146//106 
f 146//106 89//106 90//106 
f 146//107 118//107 119//107 
f 119//107 147//107 146//107 
f 89//108 146//108 147//108 
f 147//108 88//108 89//108 
f 147//109 119//109 120//109 
f 120//109 148//109 147//109 
f 88//110 147//110 148//110 
f 148//110 87//110 88//110 
f 148//111 120//111 121//111 
f 121//111 149//111 148//111 
f 87//112 148//112 149//112 
f 149//112 86//112 87//112 
f 149//113 121//113 122//113 
f 122//113 150//113 149//113 
f 86//114 149//114 150//114 
f 150//114 85//114 86//114 
f 150//115 122//115 123//115 
f 123//115 151//115 150//115 
f 85//116 150//116 151//116 
f 151//116 84//116 85//116 
f 151//117 123//117 124//117 
f 124//117 152//117 151//117 
f 84//118 151//118 152//118 
f 152//118 83//118 84//118 
f 152//119 124//119 97//119 
f 97//119 125//119 152//119 
f 83//120 152//120 125//120 
f 125//120 82//120 83//120 
# 276 faces

